<?xml version="1.0" encoding="utf-8"?>
<svg xmlns="http://www.w3.org/2000/svg" width="130" height="36" viewBox="0 0 130 36" fill="none">
<g id="Navigate">
<g id="Croner-i">
<path d="M50.5269 25.8957C49.1501 25.8957 47.9164 25.6163 46.8256 25.0576C45.7415 24.499 44.8901 23.6908 44.2716 22.6333C43.653 21.5692 43.3438 20.2789 43.3438 18.7624V18.094C43.3438 16.7039 43.6297 15.4668 44.2017 14.3827C44.7737 13.3119 45.5852 12.4738 46.636 11.8686C47.6869 11.2567 48.9373 10.9507 50.3872 10.9507C51.3982 10.9507 52.3593 11.0871 53.2705 11.3598C54.1883 11.6258 55.0396 12.0847 55.8245 12.7365V16.4778H53.2804L52.9313 14.3328C52.8182 14.2596 52.7018 14.1898 52.5821 14.1233C52.469 14.0501 52.3493 13.9869 52.2229 13.9337C51.7174 13.701 51.1454 13.5846 50.5069 13.5846C49.7687 13.5846 49.1235 13.7608 48.5715 14.1133C48.0194 14.4658 47.5905 14.978 47.2845 15.6497C46.9852 16.3148 46.8356 17.1229 46.8356 18.074V18.7624C46.8356 19.647 46.9919 20.4285 47.3045 21.1069C47.6171 21.7853 48.0527 22.3141 48.6114 22.6932C49.1767 23.0723 49.8285 23.2619 50.5668 23.2619C50.9592 23.2619 51.3583 23.2219 51.764 23.1421C52.1697 23.0557 52.5621 22.9426 52.9412 22.8029L53.2904 20.7478H55.8444V24.4092C55.2658 24.8082 54.5275 25.1574 53.6296 25.4567C52.7317 25.7494 51.6975 25.8957 50.5269 25.8957Z" fill="#23375D"/>
<path d="M63.9505 23.641V25.6862H57.9346V23.641L59.1917 23.3217V17.2659L57.6952 16.9467V14.8915H62.4939L62.5738 16.2084L62.5937 16.4778C63.0593 15.2872 63.8009 14.692 64.8185 14.692C64.9648 14.692 65.1377 14.7053 65.3373 14.7319C65.5368 14.7518 65.7397 14.7917 65.9458 14.8516L65.5967 18.064L64.1002 17.9942C63.7543 17.9809 63.4816 18.0208 63.2821 18.1139C63.0892 18.2004 62.893 18.3467 62.6935 18.5529V23.3217L63.9505 23.641Z" fill="#23375D"/>
<path d="M72.5654 25.8957C71.4547 25.8957 70.5069 25.6629 69.7221 25.1973C68.9373 24.7384 68.3354 24.0966 67.9163 23.2718C67.4973 22.4404 67.2878 21.4794 67.2878 20.3886V20.1891C67.2878 19.1116 67.4973 18.1605 67.9163 17.3358C68.3287 16.511 68.9273 15.8659 69.7121 15.4003C70.497 14.9281 71.4414 14.692 72.5455 14.692C73.6562 14.692 74.604 14.9247 75.3888 15.3903C76.167 15.8559 76.7623 16.501 77.1746 17.3258C77.5936 18.1505 77.8031 19.1049 77.8031 20.1891V20.3886C77.8031 21.4594 77.597 22.4138 77.1846 23.2519C76.7656 24.0766 76.1637 24.7251 75.3788 25.1973C74.6007 25.6629 73.6629 25.8957 72.5654 25.8957ZM72.5654 23.2319C72.9845 23.2319 73.327 23.1155 73.593 22.8827C73.8458 22.65 74.0287 22.3241 74.1417 21.905C74.2615 21.4794 74.3213 20.9739 74.3213 20.3886V20.1891C74.3213 19.637 74.2648 19.1415 74.1517 18.7026C74.032 18.2835 73.8424 17.9576 73.583 17.7248C73.3237 17.4854 72.9778 17.3657 72.5455 17.3657C72.1265 17.3657 71.7839 17.4821 71.5179 17.7149C71.2585 17.9543 71.0723 18.2869 70.9592 18.7125C70.8461 19.1315 70.7896 19.6237 70.7896 20.1891V20.3886C70.7896 20.9672 70.8461 21.476 70.9592 21.915C71.0723 22.3407 71.2585 22.6666 71.5179 22.8927C71.7773 23.1189 72.1265 23.2319 72.5654 23.2319Z" fill="#23375D"/>
<path d="M85.0812 23.641V25.6862H79.4245V23.641L80.6815 23.3217V17.2659L79.185 16.9467V14.8915H83.9937L84.1135 16.398C84.4726 15.8592 84.9116 15.4402 85.4304 15.1409C85.9558 14.8416 86.5511 14.692 87.2162 14.692C88.2271 14.692 89.0253 15.0345 89.6106 15.7196C90.1959 16.4046 90.4885 17.4921 90.4885 18.9819V23.3217L91.7456 23.641V25.6862H85.9591V23.641L86.9767 23.3217V18.9719C86.9767 18.3933 86.8603 17.9842 86.6276 17.7448C86.3948 17.4987 86.0622 17.3757 85.6299 17.3757C85.0114 17.3757 84.5292 17.6085 84.1833 18.074V23.3217L85.0812 23.641Z" fill="#23375D"/>
<path d="M98.4051 25.8957C97.3542 25.8957 96.433 25.6662 95.6415 25.2073C94.8567 24.755 94.2448 24.1331 93.8058 23.3417C93.3669 22.5502 93.1474 21.6556 93.1474 20.658V20.2888C93.1474 19.1848 93.3403 18.2137 93.726 17.3757C94.1118 16.531 94.6771 15.8725 95.4221 15.4003C96.167 14.9214 97.0815 14.6853 98.1656 14.692C99.1367 14.692 99.9647 14.8782 100.65 15.2506C102.027 16.0288 102.715 17.4788 102.715 19.6004V21.4062H96.7789L96.7689 21.476C96.8154 21.8086 96.9318 22.1079 97.1181 22.3739C97.291 22.64 97.5338 22.8495 97.8464 23.0025C98.159 23.1554 98.5447 23.2319 99.0036 23.2319C99.8816 23.2319 100.786 23.0158 101.717 22.5834L102.515 24.6985C102.03 25.0443 101.438 25.3303 100.74 25.5565C100.041 25.7826 99.263 25.8957 98.4051 25.8957ZM96.739 19.1914L96.7789 19.2413H99.5224V18.9819C99.5224 18.6094 99.4858 18.2869 99.4127 18.0142C99.2531 17.4887 98.864 17.226 98.2454 17.226C97.8929 17.226 97.6136 17.3092 97.4074 17.4754C97.2012 17.6417 97.0482 17.8745 96.9485 18.1738C96.8487 18.4731 96.7789 18.8123 96.739 19.1914Z" fill="#23375D"/>
<path d="M110.981 23.641V25.6862H104.965V23.641L106.222 23.3217V17.2659L104.725 16.9467V14.8915H109.524L109.604 16.2084L109.624 16.4778C110.089 15.2872 110.831 14.692 111.849 14.692C111.995 14.692 112.168 14.7053 112.367 14.7319C112.567 14.7518 112.77 14.7917 112.976 14.8516L112.627 18.064L111.13 17.9942C110.784 17.9809 110.512 18.0208 110.312 18.1139C110.119 18.2004 109.923 18.3467 109.724 18.5529V23.3217L110.981 23.641Z" fill="#23375D"/>
<path d="M120.972 18.084V20.7677H114.887V18.084H120.972Z" fill="#23375D"/>
<path d="M127.831 10.1227V12.8463H124.23V10.1227H127.831ZM129.088 23.641V25.6862H123.063V23.641L124.33 23.3217V17.2659L122.823 16.9467V14.8915H127.831V23.3217L129.088 23.641Z" fill="#23375D"/>
</g>
<g id="Clip path group">
<mask id="mask0_7234_30271" style="mask-type:luminance" maskUnits="userSpaceOnUse" x="0" y="0" width="36" height="36">
<g id="clippath">
<path id="Vector" d="M28.2314 0H7.46464C3.34203 0 0 3.35647 0 7.49689V28.3534C0 32.4938 3.34203 35.8503 7.46464 35.8503H28.2314C32.354 35.8503 35.696 32.4938 35.696 28.3534V7.49689C35.696 3.35647 32.354 0 28.2314 0Z" fill="white"/>
</g>
</mask>
<g mask="url(#mask0_7234_30271)">
<g id="Group">
<g id="Group_2">
<path id="Vector_2" d="M17.8555 -6.40747V17.9159L34.9818 0.720109L17.8555 -6.40747Z" fill="#D31A2B"/>
<path id="Vector_3" d="M0.730469 0.715493V0.724726L17.8522 17.9159H17.8568V-6.40747L0.730469 0.715493Z" fill="#DE9D00"/>
<path id="Vector_4" d="M17.8516 17.9204H17.8561V17.9113L17.8516 17.9204Z" fill="#20211E"/>
<path id="Vector_5" d="M-6.36328 17.9205H17.8508L17.8554 17.9158L0.729043 0.720093L-6.36328 17.9205Z" fill="#F9B036"/>
<path id="Vector_6" d="M-6.36328 17.9205L0.729042 35.1117L17.8508 17.9205H-6.36328Z" fill="#0070B3"/>
<path id="Vector_7" d="M17.8568 17.9205V42.2439L0.730469 35.1209V35.1163L17.8522 17.9205H17.8568Z" fill="#005492"/>
<path id="Vector_8" d="M17.8555 17.9158L34.9818 0.715454L42.0788 17.9204H17.8555V17.9158Z" fill="#A81127"/>
<path id="Vector_9" d="M34.9818 35.1209L17.8555 42.2439V17.9205L34.9818 35.1209Z" fill="#7B2182"/>
<path id="Vector_10" d="M17.8555 17.9205H42.0788L34.9818 35.1209L17.8555 17.9205Z" fill="#702A72"/>
</g>
</g>
</g>
</g>
</g>
</svg>