<?xml version="1.0" encoding="UTF-8"?>
<svg id="Layer_2" data-name="Layer 2" xmlns="http://www.w3.org/2000/svg" viewBox="0 0 176.24 56.4">
  <defs>
    <style>
      .cls-1 {
        letter-spacing: .02em;
      }

      .cls-2 {
        font-family: Dutch801BT-ExtraBold, 'Dutch 801 Extra BT';
        font-size: 18.74px;
        font-weight: 700;
      }

      .cls-2, .cls-3 {
        fill: #c4841e;
      }

      .cls-4 {
        letter-spacing: .26em;
      }

      .cls-4, .cls-5 {
        fill: #fff;
        font-family: ClashDisplayVariable-Medium, 'Clash Display Variable';
        font-size: 3.98px;
        font-variation-settings: 'wght' 500;
        font-weight: 500;
      }

      .cls-6 {
        letter-spacing: -.02em;
      }

      .cls-5 {
        letter-spacing: .26em;
      }
    </style>
  </defs>
  <g id="Layer_1" data-name="Layer 1">
    <g>
      <g>
        <path class="cls-3" d="M29.46.52c1.67.29,3.26.55,4.85.85.13.02.25.26.31.42.05.16.01.35.01.53,0,7.07,0,14.15-.01,21.22,0,.48.13.76.56,1,1.16.62,2.28,1.31,3.42,1.96.17.1.34.17.59.3V3.07c.3.14.52.21.72.33,1.32.79,2.63,1.6,3.95,2.37.44.26.57.59.57,1.09-.02,7.39,0,14.77-.03,22.16,0,.65.19.99.76,1.29,1.49.8,2.94,1.67,4.51,2.58.13-.96.3-1.82.37-2.7.24-3.01-.05-5.97-.98-8.85-.13-.42-.2-.87-.2-1.31-.02-2.92,0-5.85,0-8.77,0-.22,0-.44,0-.85,3.35,4.04,5.38,8.48,6.15,13.47.89,5.78.07,11.32-2.53,16.64-1.12-.64-2.18-1.24-3.24-1.85-6.41-3.7-12.82-7.41-19.23-11.1-.34-.2-.58-.37-.58-.85.02-8.55.01-17.09.02-25.64,0-.11.01-.22.04-.55Z"/>
        <path class="cls-3" d="M50.12,43.13c-1.19-.68-2.41-1.31-3.57-2.02-1.94,2.07-3.52,3.5-4.68,4.43-.22.21-.44.37-.63.51-.15.12-.29.22-.43.32-.26.19-.5.35-.69.49-1.62,1.1-3.35,1.96-5.18,2.57-.12.04-.24.07-.35.1l-8.65-12.3s.01-.01.03-.01c.46-.26.93-.53,1.4-.79l.13-.06,5.91-2.9c-1.75-1-3.52-2.03-5.27-3.04-.38-.24-.65-.13-.97.06-7.34,4.25-14.68,8.49-22.02,12.72-.16.09-.31.21-.46.31,5.13,8.08,15.06,13,24.78,12.27,9.02-.66,16.03-4.87,21.28-12.25-.28-.18-.46-.29-.65-.41ZM12.78,44.88c.07-.06.13-.12.21-.16,2.77-1.6,5.55-3.21,8.33-4.8l7.05,10.69c-5.62.16-11.3-1.75-15.58-5.74Z"/>
        <path class="cls-3" d="M25.98,1.37v-.79C16.17,1.53,8.61,6.01,3.74,14.5c-4.84,8.44-4.82,17.17-.85,26.06,1.59-.93,3.06-1.77,4.56-2.65-.04-.15-.07-.24-.1-.32-1.03-2.18-1.63-4.47-1.94-6.85-.09-.62.03-.99.63-1.32,6.44-3.68,12.87-7.41,19.31-11.11.47-.28.66-.57.66-1.15-.03-5.27-.03-10.53-.03-15.8ZM19.33,15.78c-4.32,2.4-8.59,4.91-12.89,7.4-.21.12-.41.22-.65.35,1.66-8.35,8.28-14.62,14.97-16.59,0,2.12-.09,4.21.03,6.27.09,1.28-.34,1.96-1.47,2.57Z"/>
      </g>
      <rect class="cls-3" x="63.84" width="1.17" height="56.4"/>
      <g>
        <text class="cls-2" transform="translate(70.32 18.37)"><tspan class="cls-1" x="0" y="0">P</tspan><tspan x="12.59" y="0">rofit</tspan><tspan class="cls-6" x="49.95" y="0">W</tspan><tspan x="67.9" y="0">ise</tspan><tspan x="0" y="19">Accountants</tspan></text>
        <text class="cls-5" transform="translate(71.02 46.16)"><tspan x="0" y="0">Qualified Financial Accountants</tspan></text>
        <text class="cls-4" transform="translate(71.02 52.79)"><tspan x="0" y="0">(AFA- MIPA)</tspan></text>
      </g>
    </g>
  </g>
</svg>